<svg class="icon" viewBox="0 0 1121 1024" xmlns="http://www.w3.org/2000/svg" width="218.945" height="200"><defs><style/></defs><path d="M1118.415 145.958l-91.292-4.976S992.595 17.374 834.128 6.284C675.662-4.803 571.976 2.158 571.976 2.158s117.548 76.356 70.44 212.607c-35.002 73.487-90.378 133.53-149.42 202.536l-390.41 454.63c363.427-5.437 577.689-8.157 642.789-8.157 182.564 0 336.853-161.547 330.54-341.289-4.341-123.531-42.885-151.442-56.134-205.544-13.244-54.103 13.27-140.381 98.634-170.983z"/><path d="M491.402 418.77C300.312 638.975 0 989.335 0 989.335c540.266 144.689 789.187-206.471 828.166-328.04 52.258-162.993-21.58-242.527-63.37-268.465-141.692-87.946-246.821-4.684-273.394 25.938z"/><path d="M494.055 413.688c30.313-32.71 133.365-108.794 270.822-23.138 41.794 26.04 115.636 105.895 63.374 269.553-15.14 47.418-61.965 129.617-145.243 203.903-86.355.593-280.17 3.144-581.454 7.663L473.96 437.032a8552.362 8552.362 0 0 1 19.265-22.447z" opacity=".86"/></svg>