<?xml version="1.0" standalone="no"?><!DOCTYPE svg PUBLIC "-//W3C//DTD SVG 1.1//EN" "http://www.w3.org/Graphics/SVG/1.1/DTD/svg11.dtd"><svg t="1578229414008" class="icon" viewBox="0 0 1024 1024" version="1.1" xmlns="http://www.w3.org/2000/svg" p-id="5659" xmlns:xlink="http://www.w3.org/1999/xlink" width="200" height="200"><defs><style type="text/css"></style></defs><path d="M753.29024 320.83968c-65.26976 0-118.33856-53.07904-118.33856-118.31808V66.25792H209.48992c-39.77728 0-72.01792 32.27136-72.01792 72.02304V885.76c0 39.76192 32.24576 71.98208 72.01792 71.98208h605.04064c39.76192 0 72.00256-32.22016 72.00256-71.98208V320.83968h-133.24288z m14.42816 476.55936H256.256v-48.25088h511.46752v48.25088h-0.00512z m0-154.39872H256.256v-48.24064h511.46752v48.24064h-0.00512z m0-154.3936H256.256v-48.25088h511.46752v48.25088h-0.00512z" fill="" p-id="5660"></path><path d="M681.26208 66.25792v136.25856c0 39.7568 32.25088 71.97696 72.02816 71.97696h133.23776l-205.26592-208.23552z" fill="" p-id="5661"></path></svg>