<svg t="1578575578612" class="icon" viewBox="0 0 1024 1024" version="1.1" xmlns="http://www.w3.org/2000/svg" p-id="2033" width="200" height="200"><path d="M375.259 0H75.55C33.093 0 0.624 32.468 0.624 74.927v299.707c0 42.459 32.469 74.927 74.927 74.927H375.26c42.458 0 74.926-32.468 74.926-74.927V74.927C450.185 32.468 417.717 0 375.26 0z m24.975 349.659c0 27.473-22.478 49.95-49.951 49.95H100.527c-27.473 0-49.951-22.477-49.951-49.95V99.902c0-27.473 22.478-49.95 49.95-49.95h249.757c27.473 0 49.951 22.477 49.951 49.95V349.66zM924.722 0H625.015c-42.459 0-74.927 32.468-74.927 74.927v299.707c0 42.459 32.468 74.927 74.927 74.927h299.707c42.458 0 74.927-32.468 74.927-74.927V74.927C999.649 32.468 967.18 0 924.722 0z m24.976 349.659c0 27.473-22.478 49.95-49.952 49.95H649.99c-27.473 0-49.951-22.477-49.951-49.95V99.902c0-27.473 22.478-49.95 49.951-49.95h249.756c27.474 0 49.952 22.477 49.952 49.95V349.66zM375.259 574.439H75.55c-42.458 0-74.927 32.468-74.927 74.927v299.707c0 42.459 32.469 74.927 74.927 74.927H375.26c42.458 0 74.926-32.468 74.926-74.927V649.366c0-42.459-32.468-74.927-74.926-74.927z m24.975 349.659c0 27.473-22.478 49.95-49.951 49.95H100.527c-27.473 0-49.951-22.477-49.951-49.95V674.34c0-27.473 22.478-49.95 49.95-49.95h249.757c27.473 0 49.951 22.477 49.951 49.95v249.757zM1019.63 981.541l-79.923-79.921c22.478-32.469 34.966-72.43 34.966-114.888 0-117.386-94.907-212.293-212.293-212.293s-212.292 94.907-212.292 212.293c0 117.385 94.907 212.292 212.292 212.292 54.947 0 104.898-22.478 142.361-54.946l74.927 74.927c4.995 4.995 12.488 4.995 19.98 0l19.981-19.98c4.995-4.996 4.995-12.488 0-17.484z m-419.591-194.81c0-89.911 72.43-162.34 162.341-162.34 89.913 0 162.342 72.429 162.342 162.34 0 42.46-14.985 79.923-42.459 107.396l-2.497 4.995c-29.97 29.97-69.932 49.951-117.386 49.951-89.912 0-162.341-72.43-162.341-162.341z" p-id="2034"></path></svg>