<?xml version="1.0" standalone="no"?><!DOCTYPE svg PUBLIC "-//W3C//DTD SVG 1.1//EN" "http://www.w3.org/Graphics/SVG/1.1/DTD/svg11.dtd"><svg t="1578229454210" class="icon" viewBox="0 0 1024 1024" version="1.1" xmlns="http://www.w3.org/2000/svg" p-id="6384" xmlns:xlink="http://www.w3.org/1999/xlink" width="200" height="200"><defs><style type="text/css"></style></defs><path d="M737.28 540.8768a20.48 20.48 0 0 0-20.48-20.48H307.2a20.48 20.48 0 0 0 0 40.96h409.6a20.48 20.48 0 0 0 20.48-20.48zM307.2 673.9968a20.48 20.48 0 0 0 0 40.96h266.24a20.48 20.48 0 0 0 0-40.96zM966.0416 817.3568h-102.4v-102.4a20.48 20.48 0 0 0-40.96 0v102.4h-102.4a20.48 20.48 0 1 0 0 40.96h102.4v102.4a20.48 20.48 0 0 0 40.96 0v-102.4h102.4a20.48 20.48 0 0 0 0-40.96z" p-id="6385"></path><path d="M888.6272 40.96H145.6128a97.6896 97.6896 0 0 0-97.8944 97.6896V880.64a97.6896 97.6896 0 0 0 97.6896 97.6896h510.976a20.48 20.48 0 1 0 0-39.1168H145.6128A58.5728 58.5728 0 0 1 86.8352 880.64V138.6496A58.5728 58.5728 0 0 1 145.6128 79.872h743.0144a58.5728 58.5728 0 0 1 58.5728 58.5728v510.976a20.48 20.48 0 1 0 39.1168 0V138.6496A97.6896 97.6896 0 0 0 888.6272 40.96z" p-id="6386"></path><path d="M593.92 325.8368a81.92 81.92 0 1 0-81.92 81.92 81.92 81.92 0 0 0 81.92-81.92z m-122.88 0a40.96 40.96 0 1 1 40.96 40.96 40.96 40.96 0 0 1-40.96-40.96z" p-id="6387"></path></svg>