<?xml version="1.0" standalone="no"?><!DOCTYPE svg PUBLIC "-//W3C//DTD SVG 1.1//EN" "http://www.w3.org/Graphics/SVG/1.1/DTD/svg11.dtd"><svg t="1578229488755" class="icon" viewBox="0 0 1024 1024" version="1.1" xmlns="http://www.w3.org/2000/svg" p-id="7117" xmlns:xlink="http://www.w3.org/1999/xlink" width="200" height="200"><defs><style type="text/css"></style></defs><path d="M512 0C230.4 0 0 230.4 0 512s230.4 512 512 512 512-230.4 512-512S793.6 0 512 0z m251.744 413.856c0 4.256 0 4.256 0 0v349.856c0 46.944-38.4 85.344-85.344 85.344H307.2a85.6 85.6 0 0 1-85.344-85.344V298.656c0-46.944 38.4-85.344 85.344-85.344h298.656c12.8 0 25.6 12.8 25.6 25.6s-12.8 25.6-25.6 25.6H307.2c-21.344 0-38.4 12.8-38.4 34.144v465.056c0 21.344 17.056 38.4 38.4 38.4h371.2c21.344 0 38.4-17.056 38.4-38.4V388.256c0-12.8 12.8-25.6 25.6-25.6s25.6 12.8 25.6 25.6v25.6z m-294.4 42.688h-128c-12.8 0-25.6-12.8-25.6-25.6s12.8-25.6 25.6-25.6h128c12.8 0 25.6 12.8 25.6 25.6s-12.8 25.6-25.6 25.6z m140.8 102.4c12.8 0 25.6 12.8 25.6 25.6s-12.8 25.6-25.6 25.6H332.8c-12.8 0-25.6-12.8-25.6-25.6s12.8-25.6 25.6-25.6h277.344z m192-345.6L576 448c-4.256 4.256-12.8 8.544-17.056 8.544s-12.8-4.256-17.056-8.544c-8.544-8.544-8.544-25.6 0-34.144L768.032 179.2c8.544-8.544 25.6-8.544 34.144 0s8.544 25.6 0 34.144z" p-id="7118"></path></svg>