<?xml version="1.0" standalone="no"?><!DOCTYPE svg PUBLIC "-//W3C//DTD SVG 1.1//EN" "http://www.w3.org/Graphics/SVG/1.1/DTD/svg11.dtd"><svg t="1578229336900" class="icon" viewBox="0 0 1024 1024" version="1.1" xmlns="http://www.w3.org/2000/svg" p-id="4192" xmlns:xlink="http://www.w3.org/1999/xlink" width="200" height="200"><defs><style type="text/css"></style></defs><path d="M966 268l-586 0q-12 0-23-4t-17-10q-8-8-13-18t-5-20q0-12 5-22t13-16q6-8 17-12t23-4l586 0q12 0 23 4t19 12q6 6 11 16t5 22q0 10-5 20t-11 18q-8 6-19 10t-23 4l0 0 0 0zM966 598l-586 0q-12 0-23-4t-17-12q-8-8-13-17t-5-21 5-21 13-17q6-8 17-12t23-4l586 0q12 0 23 4t19 12q6 8 11 17t5 21-5 21-11 17q-8 8-19 12t-23 4l0 0 0 0zM966 926l-586 0q-12 0-23-4t-17-12q-8-6-13-16t-5-22q0-10 5-20t13-18q6-6 17-10t23-4l586 0q12 0 23 4t19 10q6 8 11 18t5 20q0 12-5 22t-11 16q-8 8-19 12t-23 4l0 0 0 0zM186 216q0 18-7 34t-21 26q-12 12-29 19t-35 7q-20 0-37-7t-29-19q-14-10-21-26t-7-34 7-34 21-28q12-12 29-19t37-7q18 0 35 7t29 19q14 12 21 28t7 34l0 0 0 0zM186 544q0 18-7 34t-21 28q-12 12-29 19t-35 7q-20 0-37-7t-29-19q-14-12-21-28t-7-34 7-34 21-28q12-12 29-19t37-7q18 0 35 7t29 19q14 12 21 28t7 34l0 0 0 0zM186 872q0 18-7 34t-21 28q-12 12-29 19t-35 7q-20 0-37-7t-29-19q-14-12-21-28t-7-34 7-34 21-26q12-12 29-19t37-7q18 0 35 7t29 19q14 10 21 26t7 34l0 0 0 0z" p-id="4193"></path></svg>