<?xml version="1.0" standalone="no"?><!DOCTYPE svg PUBLIC "-//W3C//DTD SVG 1.1//EN" "http://www.w3.org/Graphics/SVG/1.1/DTD/svg11.dtd"><svg t="1578228803688" class="icon" viewBox="0 0 1024 1024" version="1.1" xmlns="http://www.w3.org/2000/svg" p-id="1987" xmlns:xlink="http://www.w3.org/1999/xlink" width="200" height="200"><defs><style type="text/css"></style></defs><path d="M146.7136 55.68512C65.68448 55.68512 0 121.65632 0 202.5984v583.89504c0 81.13664 65.6128 146.91328 146.7136 146.91328h730.5728c81.02912 0 146.7136-65.9712 146.7136-146.91328V202.59328c0-81.13664-65.6128-146.91328-146.7136-146.91328H146.7136z m596.40832 390.5536s-11.65824-22.85056-52.65408-22.85056c-46.51008 0-60.49792 22.144-60.49792 22.144l-175.9232 286.47936s-9.56928 19.19488-33.04448 19.19488c-24.576 0-36.31104-19.19488-36.31104-19.19488l-92.51328-111.55968s-23.7056-33.11616-54.50752-33.11616c-30.67392 0-56.15616 36.64896-56.15616 36.64896l-71.80288 89.98912V238.24896c0-40.23296 32.5376-72.84736 72.82176-72.84736h658.93376c40.2176 0 72.81664 32.0256 72.81664 73.35936v438.64064l-171.1616-231.16288zM475.42784 384.80384c0 60.62592-49.11104 109.73696-109.696 109.73696S256 445.39392 256 384.80384c0-60.544 49.14688-109.69088 109.73184-109.69088 60.58496 0.03584 109.696 49.14688 109.696 109.69088z" p-id="1988"></path></svg>