<?xml version="1.0" standalone="no"?><!DOCTYPE svg PUBLIC "-//W3C//DTD SVG 1.1//EN" "http://www.w3.org/Graphics/SVG/1.1/DTD/svg11.dtd"><svg t="1578229362145" class="icon" viewBox="0 0 1024 1024" version="1.1" xmlns="http://www.w3.org/2000/svg" p-id="4923" xmlns:xlink="http://www.w3.org/1999/xlink" width="200" height="200"><defs><style type="text/css"></style></defs><path d="M542.72 532.48c-46.08 30.72-97.28 46.08-153.6 46.08s-107.52-15.36-153.6-46.08C117.76 588.8 30.72 716.8 30.72 860.16c0 148.48 711.68 153.6 711.68 0 5.12-143.36-76.8-271.36-199.68-327.68z m-153.6 5.12c133.12 0 240.64-107.52 240.64-240.64S522.24 56.32 389.12 56.32c-128-5.12-235.52 107.52-235.52 240.64S261.12 537.6 389.12 537.6z m424.96-20.48c-35.84 25.6-76.8 40.96-122.88 40.96 87.04 71.68 143.36 184.32 143.36 312.32v15.36c92.16-15.36 158.72-40.96 158.72-87.04-5.12-122.88-76.8-230.4-179.2-281.6z m-199.68 0c20.48 10.24 46.08 15.36 71.68 15.36 107.52 0 194.56-87.04 194.56-199.68S793.6 133.12 686.08 133.12h-15.36c30.72 46.08 51.2 102.4 51.2 163.84C716.8 384 675.84 465.92 614.4 517.12z" p-id="4924"></path></svg>