<?xml version="1.0" standalone="no"?><!DOCTYPE svg PUBLIC "-//W3C//DTD SVG 1.1//EN" "http://www.w3.org/Graphics/SVG/1.1/DTD/svg11.dtd"><svg t="1578229580165" class="icon" viewBox="0 0 1024 1024" version="1.1" xmlns="http://www.w3.org/2000/svg" p-id="8947" xmlns:xlink="http://www.w3.org/1999/xlink" width="200" height="200"><defs><style type="text/css"></style></defs><path d="M133.565217 145.474783C155.826087 65.669565 318.553043 5.565217 512 5.565217s356.173913 60.104348 378.434783 139.909566v732.93913c-22.26087 79.805217-184.987826 139.909565-378.434783 139.909565S155.826087 958.21913 133.565217 878.413913z m110.747826 0c0 44.633043 120.097391 80.918261 268.243479 80.91826 148.034783 0 268.132174-36.285217 268.132174-80.91826S660.591304 64.667826 512.556522 64.667826c-148.146087 0-268.243478 36.173913-268.243479 80.806957zM389.565217 447.666087c-32.723478-8.013913-67.005217-7.68-99.506087 1.001739a61.328696 61.328696 0 0 0-38.622608 53.092174c-2.226087 22.706087 8.347826 44.744348 27.380869 57.09913l45.746087 19.478261c4.674783 2.893913 7.346087 8.013913 7.123479 13.579131-0.222609 5.453913-3.33913 10.351304-8.125218 12.911304-12.243478 2.226087-24.82087 1.113043-36.61913-3.005217l-33.502609-15.36-1.001739 55.095652c19.923478 8.236522 41.405217 12.02087 62.998261 11.241739 22.372174 1.001739 44.521739-5.453913 62.998261-18.365217a71.424 71.424 0 0 0 23.373913-47.972174 61.306435 61.306435 0 0 0-29.495653-49.975652l-49.753043-25.6a15.248696 15.248696 0 0 1 0.111304-17.363479c3.561739-5.12 10.017391-7.568696 16.139131-6.121739 17.808696 0.222609 35.394783 5.12 50.754782 14.358261z m126.998261 46.970435c20.257391 0 36.61913 23.485217 36.619131 52.535652s-16.361739 52.535652-36.619131 52.535652-36.61913-23.485217-36.61913-52.535652 16.361739-52.535652 36.61913-52.535652z m45.523479 145.92a102.366609 102.366609 0 0 0 56.097391-102.066087c-3.005217-37.843478-24.709565-71.68-57.878261-89.822609a101.465043 101.465043 0 0 0-73.238261-3.116522 91.814957 91.814957 0 0 0-66.003478 59.213913c-13.57913 34.504348-9.46087 73.46087 11.130435 104.18087a101.754435 101.754435 0 0 0 77.245217 43.853913l41.627826 47.972174h81.363478z m84.48 8.125217h132.11826v-49.975652h-71.123478V443.547826h-60.994782z" p-id="8948"></path></svg>