<?xml version="1.0" standalone="no"?><!DOCTYPE svg PUBLIC "-//W3C//DTD SVG 1.1//EN" "http://www.w3.org/Graphics/SVG/1.1/DTD/svg11.dtd"><svg t="1578229317163" class="icon" viewBox="0 0 1024 1024" version="1.1" xmlns="http://www.w3.org/2000/svg" p-id="3463" xmlns:xlink="http://www.w3.org/1999/xlink" width="200" height="200"><defs><style type="text/css"></style></defs><path d="M895.034 380.599h-36.888a11.13 11.13 0 0 1-10.31-6.878 11.119 11.119 0 0 1 2.417-12.155l26.091-26.043c24.335-24.301 24.335-63.849 0-88.158l-98.707-98.553c-11.728-11.728-27.403-18.186-44.14-18.186-16.73 0-32.412 6.458-44.154 18.186l-26.076 26.043a11.09 11.09 0 0 1-7.891 3.262c-1.48 0-2.917-0.285-4.275-0.847a11.115 11.115 0 0 1-6.892-10.301v-36.832C644.21 94.905 615.038 64 581.78 64H442.212c-33.259 0-62.433 30.905-62.433 66.137v36.832a11.144 11.144 0 0 1-11.163 11.148 11.064 11.064 0 0 1-7.888-3.263l-26.086-26.042c-11.74-11.728-27.418-18.186-44.145-18.186-16.719 0-32.396 6.458-44.143 18.185l-98.699 98.555c-24.34 24.31-24.34 63.859 0 88.162l26.082 26.038a11.118 11.118 0 0 1 2.42 12.156 11.121 11.121 0 0 1-10.309 6.878h-36.887c-35.214 0-64.963 28.55-64.963 62.343v139.378c0 33.794 29.749 62.343 64.963 62.343h36.887c4.528 0 8.574 2.699 10.309 6.877a11.117 11.117 0 0 1-2.42 12.157l-26.082 26.042c-24.339 24.306-24.339 63.853 0 88.157l98.699 98.56c11.752 11.725 27.43 18.181 44.143 18.181 16.723 0 32.398-6.456 44.145-18.182l26.084-26.042a11.26 11.26 0 0 1 7.89-3.263c1.497 0 2.931 0.283 4.271 0.846a11.11 11.11 0 0 1 6.892 10.302v36.831c0 35.164 28.59 64.872 62.433 64.872H581.78c33.841 0 62.43-29.708 62.43-64.872v-36.831c0-4.531 2.705-8.574 6.899-10.305a10.974 10.974 0 0 1 4.268-0.843c2.971 0 5.775 1.159 7.891 3.262l26.076 26.044c11.752 11.725 27.433 18.181 44.154 18.181 16.728 0 32.402-6.456 44.139-18.182l98.708-98.559c24.331-24.305 24.331-63.852 0-88.157l-26.091-26.042a11.113 11.113 0 0 1-2.417-12.155 11.128 11.128 0 0 1 10.31-6.879h36.888c35.215 0 64.966-28.549 64.966-62.343V442.938c-0.001-33.792-29.752-62.339-64.967-62.339z m-106.25 246.515c-11.668 28.116-5.281 60.188 16.273 81.71l25.02 24.989-96.579 96.448-25.031-24.986c-14.181-14.161-33.035-21.96-53.09-21.96-9.932 0-19.599 1.922-28.73 5.712-28.162 11.641-46.36 38.83-46.36 69.27v37.87h-136.58v-37.87c0-30.442-18.193-57.632-46.348-69.269-9.133-3.791-18.803-5.713-28.743-5.713-20.056 0-38.91 7.799-53.089 21.96l-25.029 24.986-96.578-96.448 25.02-24.989c21.55-21.517 27.938-53.586 16.273-81.702-11.654-28.122-38.881-46.293-69.363-46.293h-37.926V444.428h37.926c30.482 0 57.71-18.169 69.363-46.289 11.665-28.113 5.277-60.184-16.273-81.705l-25.02-24.99 96.578-96.445 25.028 24.986c14.173 14.162 33.026 21.96 53.09 21.96a74.75 74.75 0 0 0 28.733-5.707c28.161-11.648 46.357-38.839 46.357-69.271v-39.139h136.579v39.139c0 30.427 18.197 57.618 46.359 69.27a74.73 74.73 0 0 0 28.731 5.708c20.063 0 38.917-7.799 53.09-21.96l25.031-24.987 96.579 96.445-25.02 24.989c-21.558 21.524-27.944 53.596-16.274 81.706 11.654 28.12 38.878 46.289 69.355 46.289h37.938v136.401h-37.938c-30.473 0.001-57.696 18.169-69.352 46.286z" p-id="3464"></path><path d="M511.994 326.574c-102.738 0-186.322 83.463-186.322 186.053 0 102.596 83.584 186.064 186.322 186.064 102.739 0 186.322-83.469 186.322-186.064 0-102.59-83.583-186.053-186.322-186.053z m0 308.284c-67.49 0-122.397-54.833-122.397-122.231 0-67.393 54.907-122.22 122.397-122.22s122.398 54.828 122.398 122.22c0.001 67.398-54.908 122.231-122.398 122.231z" p-id="3465"></path></svg>