<?xml version="1.0" standalone="no"?><!DOCTYPE svg PUBLIC "-//W3C//DTD SVG 1.1//EN" "http://www.w3.org/Graphics/SVG/1.1/DTD/svg11.dtd"><svg t="1578229200674" class="icon" viewBox="0 0 1024 1024" version="1.1" xmlns="http://www.w3.org/2000/svg" p-id="2708" xmlns:xlink="http://www.w3.org/1999/xlink" width="200" height="200"><defs><style type="text/css"></style></defs><path d="M979.288394 184.807885L853.398826 311.080451l-122.755578-22.259924-22.069924-122.755578L834.400892 39.791383c-28.209903-28.273903-68.573764-41.259858-98.383662-39.659863-30.128896 1.470995-94.224676 18.486936-143.864506 71.259755-48.167834 50.727826-98.76666 145.4005-53.924814 250.564138 5.372982 12.665956 11.321961 29.425899-6.459978 47.208838-18.039938 17.846939-494.5383 392.76465-494.5383 392.76465-62.369786 48.743832-26.16391 168.364421 29.296899 219.602245 47.719836 44.009849 156.913461 59.554795 194.079333 16.503943 0 0 368.520733-490.060315 389.82266-510.722244 18.805935-18.549936 35.821877-12.345958 47.079838-6.523978 79.256728 40.939859 192.224339 5.308982 250.819138-53.285817 58.595799-58.594799 69.277762-115.142604 71.069756-144.056504 1.726994-28.785901-8.315971-66.84677-40.108862-98.639661zM162.221202 928.629328a62.432785 62.432785 0 0 1-62.431785-62.559785 62.369786 62.369786 0 1 1 124.801571 0 62.432785 62.432785 0 0 1-62.369786 62.559785z" p-id="2709"></path></svg>